<svg xmlns="http://www.w3.org/2000/svg" xmlns:xlink="http://www.w3.org/1999/xlink" viewBox="0 0 89.75 89.75" preserveAspectRatio="none">
    <defs>
      <style>.cls-1{fill:url(#名称未設定グラデーション_15);}
      </style>
        <linearGradient id="名称未設定グラデーション_15" x1="44.87" y1="1.33" x2="44.88" y2="89.18" gradientUnits="userSpaceOnUse">
          <stop offset="0" stop-color="#34a7e6"/><stop offset="1" stop-color="#28a0e3"/>
        </linearGradient>
     </defs>
     <path class="cls-1" d="M44.88,89.75a45.2,45.2,0,0,1-9-.91,44.88,44.88,0,0,1,0-87.93,45.46,45.46,0,0,1,18.08,0A3,3,0,1,1,52.7,6.85a39.38,39.38,0,0,0-15.65,0,38.57,38.57,0,0,0-13.87,5.84A38.92,38.92,0,0,0,9.12,29.77,38.56,38.56,0,0,0,6.86,37a39.21,39.21,0,0,0,0,15.65,38.55,38.55,0,0,0,5.84,13.87A38.93,38.93,0,0,0,29.77,80.63a38.63,38.63,0,0,0,7.28,2.26,39.4,39.4,0,0,0,15.65,0,38.57,38.57,0,0,0,13.87-5.84A38.95,38.95,0,0,0,80.63,60a38.55,38.55,0,0,0,2.26-7.28,39.21,39.21,0,0,0,0-15.65,38.59,38.59,0,0,0-2.26-7.28,3,3,0,1,1,5.59-2.36,44.59,44.59,0,0,1,2.62,8.43,45.29,45.29,0,0,1,0,18.08,44.62,44.62,0,0,1-6.75,16A45,45,0,0,1,62.34,86.22,44.75,44.75,0,0,1,44.88,89.75Z" transform="translate(0 0)"/>
</svg>