<svg viewBox="0 0 1792 1792" xmlns="http://www.w3.org/2000/svg">
	<g xmlns="http://www.w3.org/2000/svg">
		<g>
			<path fill="#48B8F7" d="M940.808,421.73l-0.02-0.02h-45.535c-1.947,0-3.527,1.578-3.527,3.527v116.381      c0,1.947,1.58,3.527,3.527,3.527h81.115c1.947,0,3.525-1.58,3.525-3.527v-80.803l-0.004-0.004h-39.082V421.73z"/>
			<polygon fill="#6BD0FC" points="940.808,460.812 979.89,460.812 940.808,421.73     "/>
			<polygon opacity="0.1" fill="#333333" points="979.894,499.897 979.894,460.816 979.89,460.812 940.808,460.812       940.808,460.812     "/>
		</g>
		<g>
			<path fill="#F1F2F2" d="M907.587,527.637v-21.006h7.441c7.461,0,11.191,3.412,11.191,10.238c0,3.271-1.018,5.885-3.055,7.838      c-2.035,1.953-4.748,2.93-8.137,2.93H907.587z M912.317,510.483v13.316h2.344c2.051,0,3.66-0.615,4.828-1.846      c1.166-1.23,1.75-2.906,1.75-5.025c0-2.002-0.578-3.576-1.736-4.725c-1.156-1.146-2.781-1.721-4.871-1.721H912.317z"/>
			<path fill="#F1F2F2" d="M937.804,528.002c-3.008,0-5.459-0.979-7.354-2.938c-1.895-1.957-2.842-4.508-2.842-7.652      c0-3.32,0.961-6.006,2.885-8.057s4.473-3.076,7.646-3.076c2.998,0,5.422,0.98,7.273,2.943c1.85,1.963,2.775,4.551,2.775,7.764      c0,3.301-0.959,5.963-2.879,7.984C943.392,526.993,940.89,528.002,937.804,528.002z M938.009,510.352      c-1.66,0-2.979,0.621-3.955,1.867c-0.977,1.244-1.465,2.893-1.465,4.943c0,2.08,0.488,3.727,1.465,4.938      s2.256,1.816,3.838,1.816c1.631,0,2.924-0.59,3.881-1.766c0.957-1.178,1.436-2.811,1.436-4.9c0-2.178-0.463-3.871-1.391-5.082      S939.62,510.352,938.009,510.352z"/>
			<path fill="#F1F2F2" d="M965.954,526.889c-1.533,0.742-3.535,1.113-6.006,1.113c-3.223,0-5.758-0.947-7.604-2.842      s-2.768-4.418-2.768-7.572c0-3.359,1.037-6.084,3.111-8.174c2.076-2.09,4.77-3.135,8.08-3.135c2.051,0,3.779,0.258,5.186,0.775      v4.557c-1.406-0.84-3.008-1.26-4.805-1.26c-1.973,0-3.564,0.619-4.775,1.859s-1.816,2.92-1.816,5.039      c0,2.031,0.57,3.65,1.713,4.855c1.143,1.207,2.682,1.811,4.615,1.811c1.846,0,3.535-0.449,5.068-1.348V526.889z"/>
		</g>
	</g>
</svg>