<svg viewBox="0 0 1792 1792" xmlns="http://www.w3.org/2000/svg">
  <g xmlns="http://www.w3.org/2000/svg">
    <g>
      <path fill="#38C1BA" d="M1344.236,421.73l-0.02-0.02h-45.535c-1.947,0-3.527,1.578-3.527,3.527v116.381      c0,1.947,1.58,3.527,3.527,3.527h81.115c1.947,0,3.525-1.58,3.525-3.527v-80.803l-0.004-0.004h-39.082V421.73z"/>
      <polygon fill="#52CCC3" points="1344.236,460.812 1383.318,460.812 1344.236,421.73     "/>
      <polygon opacity="0.1" fill="#333333" points="1383.322,499.897 1383.322,460.816 1383.318,460.812 1344.236,460.812       1344.236,460.812     "/>
    </g>
    <g>
      <path fill="#F1F2F2" d="M1334.803,527.637h-16.918v-2.725l10.766-14.43h-9.99v-3.852h16.113v2.65l-10.531,14.518h10.561V527.637      z"/>
      <path fill="#F1F2F2" d="M1343.604,506.631v3.662h-1.758v13.682h1.758v3.662h-8.246v-3.662h1.758v-13.682h-1.758v-3.662H1343.604      z"/>
      <path fill="#F1F2F2" d="M1350.572,520.401v7.236h-4.73v-21.006h7.412c5.293,0,7.939,2.23,7.939,6.693      c0,2.109-0.76,3.816-2.279,5.119c-1.518,1.305-3.547,1.957-6.086,1.957H1350.572z M1350.572,510.264v6.547h1.861      c2.52,0,3.779-1.104,3.779-3.311c0-2.158-1.26-3.236-3.779-3.236H1350.572z"/>
    </g>
  </g>
</svg>